# xmcd
#
# Track frame offsets:
#	150
#	12931
#	25953
#	37785
#	50077
#	62610
#	72939
#	85418
#	97850
#	107623
#	120131
#	129871
#	139839
#	151961
#	165526
#	178532
#	189062
#	202591
#	213586
#	226518
#	236294
#	249254
#	261378
#	271027
#
# Disc length: 3748 seconds
#
# Revision: 0
# Processed by: cddbd v1.5.1PL0 Copyright (c) Steve Scherf et al.
# Submitted via: EasyCDDAExtractor 4.5.0.1
#
DISCID=220ea218
DTITLE=Roy Orbison - Sings Vol. 2 (1965-1973 MGM LPs)
DYEAR=2004
DGENRE=Slow Rock
TTITLE0=You' ll Never Be Sixteen Again
TTITLE1=Pantomime
TTITLE2=Twinkle Toes
TTITLE3=Losing You
TTITLE4=City Life
TTITLE5=Wait
TTITLE6=Growing Up
TTITLE7=Where Is Tomorrow
TTITLE8=(No) I' ll Never Get Over You
TTITLE9=Going Back To Gloria
TTITLE10=Just Another Name For Rock And Roll
TTITLE11=Never Love Again
TTITLE12=She
TTITLE13=Communication Breakdown
TTITLE14=Cry Softly Lonely One
TTITLE15=Girl Like Mine
TTITLE16=It Takes One (To Know One)
TTITLE17=Just Let Me Make Believe
TTITLE18=Here Comes The Rain, Baby
TTITLE19=That' s A No No
TTITLE20=Memories
TTITLE21=Time To Cry
TTITLE22=Only Alive
TTITLE23=Just One Time
EXTD=
EXTT0=
EXTT1=
EXTT2=
EXTT3=
EXTT4=
EXTT5=
EXTT6=
EXTT7=
EXTT8=
EXTT9=
EXTT10=
EXTT11=
EXTT12=
EXTT13=
EXTT14=
EXTT15=
EXTT16=
EXTT17=
EXTT18=
EXTT19=
EXTT20=
EXTT21=
EXTT22=
EXTT23=
PLAYORDER=
